<svg width="31" height="30" fill="none" xmlns="http://www.w3.org/2000/svg"><g filter="url(#a)"><path d="M28.3.8a1 1 0 0 0-.9-.8c-5 0-17 1-21.8 8.4-2.5 3.9-2.7 8.9-.6 15-.7 2-1 3.4-1 3.4 0 .5.2 1 .7 1.2H5a1 1 0 0 0 1-.8s2.4-10.4 10.8-16.4c.4-.3.6-.9.3-1.4a.9.9 0 0 0-1.3-.2 30 30 0 0 0-9.5 11.6c-1.3-4.6-1-8.4 1-11.3 3.7-5.7 12.6-7.1 18-7.4A20 20 0 0 0 22.7 13c0 3.1-.8 5.5-2.4 7.1-2.6 2.6-6.9 2.9-10 2.6-.5 0-1 .4-1 1 0 .5.3 1 .8 1l2 .1c3.2 0 6.9-.7 9.5-3.2 2-2 3-4.9 3-8.6 0-9.1 3.2-11.1 3.3-11.1.3-.2.5-.7.4-1.1Z" fill="#fff"/></g><defs><filter id="a" x="-.4" y="0" width="32.8" height="36" filterUnits="userSpaceOnUse" color-interpolation-filters="sRGB"><feFlood flood-opacity="0" result="BackgroundImageFix"/><feColorMatrix in="SourceAlpha" values="0 0 0 0 0 0 0 0 0 0 0 0 0 0 0 0 0 0 127 0" result="hardAlpha"/><feOffset dy="4"/><feGaussianBlur stdDeviation="2"/><feComposite in2="hardAlpha" operator="out"/><feColorMatrix values="0 0 0 0 0 0 0 0 0 0 0 0 0 0 0 0 0 0 0.25 0"/><feBlend in2="BackgroundImageFix" result="effect1_dropShadow_58941_226"/><feBlend in="SourceGraphic" in2="effect1_dropShadow_58941_226" result="shape"/></filter></defs></svg>