<svg xmlns="http://www.w3.org/2000/svg" xmlns:xlink="http://www.w3.org/1999/xlink"><defs><clipPath id="a"><path fill="#fff" d="M0 0h128v24H0z"/></clipPath><clipPath id="a"><path fill="#fff" d="M0 0h101v18H0z"/></clipPath><clipPath id="a"><path fill="#fff" d="M0 0h20v20H0z"/></clipPath></defs><symbol id="arrow"><g fill="none"><path stroke="#000" stroke-width="2" d="M0 6h18"/><path d="m24 6-6.8 5.2V.8L24 6Z" fill="#000"/></g></symbol><symbol id="dining"><g fill="none"><path fill-rule="evenodd" clip-rule="evenodd" d="M19.12.08a1 1 0 0 1 1.09.21c.9.91 2.1 2.88 3.06 5.92A42.6 42.6 0 0 1 25 19a1 1 0 0 1-1 1h-3.5v9a1 1 0 1 1-2 0V1a1 1 0 0 1 .62-.92ZM20.5 18H23a39.62 39.62 0 0 0-1.64-11.19 22.4 22.4 0 0 0-.86-2.3V18ZM6.5 0a1 1 0 0 1 1 1v28a1 1 0 1 1-2 0V1a1 1 0 0 1 1-1Z" fill="#fff"/><path fill-rule="evenodd" clip-rule="evenodd" d="M2 0a1 1 0 0 1 1 1v5.5c0 .56.2 1.32.7 1.92.48.56 1.31 1.08 2.8 1.08a1 1 0 1 1 0 2 5.41 5.41 0 0 1-4.33-1.8A5.07 5.07 0 0 1 1 6.5V1a1 1 0 0 1 1-1Z" fill="#fff"/><path fill-rule="evenodd" clip-rule="evenodd" d="M11 0a1 1 0 0 0-1 1v5.5c0 .56-.2 1.32-.7 1.92-.48.56-1.31 1.08-2.8 1.08a1 1 0 0 0 0 2c2.01 0 3.43-.73 4.33-1.8A5.07 5.07 0 0 0 12 6.5V1a1 1 0 0 0-1-1Z" fill="#fff"/></g></symbol><symbol id="favicon_x152"><g fill="none"><path fill="#EEE" d="M0 0h152v152H0z"/><path d="M36.302 95.837a18.558 18.558 0 0 1-3.254-11.806V66.969a18.845 18.845 0 0 1 3.208-11.92c2.154-2.714 5.834-4.064 11.04-4.049 5.207.015 8.733 1.206 10.577 3.572a15.058 15.058 0 0 1 3.091 10.214v4.003h-9.623v-4.345a22.28 22.28 0 0 0-.302-3.412 3.791 3.791 0 0 0-1.093-2.161 3.65 3.65 0 0 0-1.25-.684 3.7 3.7 0 0 0-1.423-.158c-.69-.1-1.394.01-2.018.315a3.362 3.362 0 0 0-1.468 1.392 12.202 12.202 0 0 0-.79 5.004v21.657c-.107 1.714.204 3.43.906 5.004a3.411 3.411 0 0 0 1.432 1.323 3.506 3.506 0 0 0 1.938.338 3.198 3.198 0 0 0 1.906-.326 3.103 3.103 0 0 0 1.349-1.358c.562-1.6.806-3.291.72-4.981v-4.55h9.623v3.935a16.229 16.229 0 0 1-2.859 10.487c-2.045 2.503-5.578 3.731-10.6 3.731-5.02 0-8.948-1.365-11.11-4.163ZM73.468 52h11.135L94 99h-9.256l-1.668-10.385h-7.8l-1.879 10.318H64L73.468 52Zm8.574 30.707-2.96-18.89-2.936 18.89h5.896ZM100.556 59.083H93V52h25v7.083h-7.463V99h-10.004l.023-39.917Z" fill="#111"/></g></symbol><symbol id="favicon_x16"><g fill="none"><rect width="16" height="16" rx="4" fill="#EEE"/><path d="M2.472 10.49a2.039 2.039 0 0 1-.465-1.445v-2.09a2.067 2.067 0 0 1 .458-1.46c.308-.332.834-.497 1.577-.495.744.002 1.248.148 1.511.437.321.36.478.803.442 1.251v.49H4.62v-.532a2.35 2.35 0 0 0-.043-.418.444.444 0 0 0-.156-.264.552.552 0 0 0-.179-.084.613.613 0 0 0-.203-.02.568.568 0 0 0-.288.04.457.457 0 0 0-.21.17 1.302 1.302 0 0 0-.113.612v2.652c-.015.21.03.42.13.613.047.07.119.126.204.162.086.036.182.05.277.041a.523.523 0 0 0 .272-.04.417.417 0 0 0 .193-.166c.08-.196.115-.403.103-.61v-.557h1.375v.482c.04.454-.104.907-.409 1.284-.292.307-.797.457-1.514.457s-1.278-.167-1.587-.51ZM7.262 5h1.485L10 11H8.766l-.223-1.326h-1.04l-.25 1.317H6L7.262 5Zm1.144 3.92L8.01 6.509 7.619 8.92h.787ZM10.907 5.904H10V5h3v.904h-.896V11h-1.2l.003-5.096Z" fill="#111"/></g></symbol><symbol id="favicon_x32"><g fill="none"><rect width="32" height="32" rx="8" fill="#EEE"/><path d="M5.826 20.98a4.476 4.476 0 0 1-.814-2.89v-4.18a4.545 4.545 0 0 1 .802-2.918c.538-.665 1.458-.996 2.76-.992 1.302.004 2.183.295 2.644.875.562.718.837 1.605.773 2.501v.98H9.585v-1.063a5.348 5.348 0 0 0-.075-.836.922.922 0 0 0-.273-.53.918.918 0 0 0-.669-.205.881.881 0 0 0-.504.076.834.834 0 0 0-.367.341c-.153.392-.22.809-.198 1.226v5.304c-.026.42.051.84.227 1.225.084.14.208.252.358.324.15.072.318.101.484.083a.814.814 0 0 0 .477-.08.768.768 0 0 0 .337-.332 3.13 3.13 0 0 0 .18-1.22v-1.115h2.406v.964a3.915 3.915 0 0 1-.715 2.568c-.511.613-1.395.914-2.65.914s-2.237-.334-2.777-1.02ZM15.21 10h2.597L20 22h-2.16l-.389-2.651h-1.82l-.438 2.634H13L15.21 10Zm2 7.84-.69-4.823-.686 4.823h1.376ZM21.813 11.808H20V10h6v1.808h-1.791V22h-2.401l.005-10.192Z" fill="#111"/></g></symbol><symbol id="footer_logo"><g fill="none"><g clip-path="url(#a)" fill="#111"><path d="M1.6 22.05A9.5 9.5 0 0 1 0 16.31V7.79a9.63 9.63 0 0 1 1.5-5.84C2.6.62 4.3 0 6.81 0c2.5 0 4.1.62 5.1 1.74a7.49 7.49 0 0 1 1.51 5.03v2.05h-4.9V6.46c.03-.7-.07-1.4-.3-2.05a1.46 1.46 0 0 0-.59-.63 1.41 1.41 0 0 0-.82-.19c-.7 0-1.2.2-1.4.72-.23.73-.33 1.49-.3 2.25v10.98c-.05.74.08 1.48.4 2.15.2.52.7.72 1.4.72s1.1-.2 1.3-.72c.23-.7.33-1.42.3-2.15v-2.46h4.91v2.05a7.98 7.98 0 0 1-1.5 5.13c-1 1.23-2.7 1.84-5.1 1.84-2.41-.1-4.22-.72-5.22-2.05ZM19.33.3h5.7l4.22 23.4h-4.61l-.8-4.93h-3.3l-.8 4.92h-4.72L19.33.31Zm4.1 15.4-1.2-9.14-1.2 9.13h2.4Zm9.32-11.5h-3.4V.3h11.91v3.8h-3.4v19.6h-5.1V4.2ZM50.38.3h8.81v2.47h-5.7v7.7h4.6v2.35h-4.6v8.62h5.7v2.35h-8.91V.31h.1ZM61.8.3H64l6.51 15.5V.3h2.6v23.4h-2l-6.6-16v16H61.8V.3Zm14.32 0h8.81v2.47h-5.7v7.7h4.6v2.35h-4.6v8.62h5.7v2.35h-8.81V.31Zm11.42 0h4.6a7.87 7.87 0 0 1 5.11 1.44c1.1.93 1.6 2.57 1.6 4.72 0 2.98-.9 4.82-2.8 5.44l3.2 11.69h-3.1l-3-10.97h-2.5v10.97h-3.21V.31h.1Zm4.4 10.06a4.3 4.3 0 0 0 2.9-.82c.6-.51.91-1.54.91-3.08a6.77 6.77 0 0 0-.3-2.25 2.58 2.58 0 0 0-1.1-1.24 4.47 4.47 0 0 0-2.2-.4h-1.4v7.69h1.2v.1Zm10.92 11.59a10.57 10.57 0 0 1-1.4-5.95V8.2c-.03-1.48.14-2.96.5-4.4a5.2 5.2 0 0 1 1.9-2.67c1.12-.68 2.41-1 3.7-.92 2.11 0 3.61.5 4.52 1.64a7.98 7.98 0 0 1 1.4 5.12v.82h-3v-.71c0-.86-.07-1.72-.2-2.57a2.06 2.06 0 0 0-.8-1.33 3.04 3.04 0 0 0-1.91-.51 2.96 2.96 0 0 0-2 .61 2.3 2.3 0 0 0-.8 1.64c-.14.92-.2 1.85-.2 2.77v8.72a9.53 9.53 0 0 0 .6 3.9c.4.82 1.2 1.13 2.4 1.13a2.37 2.37 0 0 0 2.4-1.23c.53-1.3.77-2.7.7-4.1v-1.65h-2.9V12.1h5.8v11.6h-2l-.3-2.67c-.26.89-.8 1.67-1.55 2.2-.74.55-1.64.81-2.55.77a4.9 4.9 0 0 1-4.3-2.05Zm17.13-6.46L115.08.4h3l3.51 11.28L124.99.4H128l-4.9 15.08v8.2h-3.01v-8.2h-.1Z"/></g></g></symbol><symbol id="geen_cat_mob"><g fill="none"><path fill="#68B738" fill-opacity=".85" d="M0 0h320v302H0z"/></g></symbol><symbol id="green_cat_des"><g fill="none"><path fill="#68B738" fill-opacity=".85" d="M0 0h720v694H0z"/></g></symbol><symbol id="green_cat_mob_catalog"><g fill="none"><path fill="#68B738" fill-opacity=".85" d="M0 .119h280V290H0z"/></g></symbol><symbol id="green_cat_tab_catalog"><g fill="none"><path fill="#68B738" fill-opacity=".85" d="M0 0h707v200H0z"/></g></symbol><symbol id="htmlacademy" viewBox="0 0 60 60"><path fill="#2E368F" d="M30.2 5H30L10.3 7.1v36.2L30 55l19.7-11.7V7.1L30.2 5zm17 36.8L30 52 12.8 41.8V27l17.1 10.2V39l-11.7-7v1.8L30 40.9v1.9l-11.8-7v1.8l11.8 7 11.9-7.1v-7.6l5.3-3.2v15.1zm-.1-17-4.7 2.8-2.2 1.3-10.3-6.1v1.8l8.8 5.3h-.1l-.2.1-1.3.7-7.3-4.3v1.8l5.8 3.4-1.4.9-4.3-2.6v1.8l2.9 1.7-2.9 1.7-17-10.1 17-10.2 17.2 10zm.1-1.8L29.9 12.8 12.8 23V9.4L30 7.6l17.2 1.8V23z"/></symbol><symbol id="html_academy"><g fill="none"><path d="M13.643.016 13.5 0 0 1.407v24.606L13.5 34 27 26.013V1.407L13.643.016Zm11.591 25L13.5 31.956 1.766 25.015V14.93l11.685 6.916.02 1.253-8.017-4.743-.011 1.225 8.046 4.809.02 1.286-8.045-4.758-.01 1.226L13.5 26.95l8.124-4.833V16.91l3.62-2.15-.01 10.256Zm0-11.564-3.22 1.88-1.482.875-7.065-4.187-.011 1.225 6.04 3.573-.053.031-.13.076-.86.492-4.986-2.948-.011 1.225 3.936 2.328-.933.61-.021.012-2.971-1.742-.011 1.225 1.947 1.135-1.988 1.186-11.618-6.872 11.638-6.958 11.8 6.834Zm0-1.225L13.44 5.31 1.766 12.22V2.99L13.5 1.764 25.234 2.99v9.237Z" fill="#666"/></g></symbol><symbol id="long_cat_desktop"><g fill="none"><path d="M123.1 5.8c1.2-1.8 2.7-3.4 4.5-4.6 1-.7 1.6-.7 2.2.6.8 1.9 1.5 3.9.9 6a2.3 2.3 0 0 0 .4 2.1l1.6 2.3a6.3 6.3 0 0 1 .9 6.2c-.4 1-.4 2-.2 3.1.2 1 .2 2 0 3a3.8 3.8 0 0 1-2.7 3.2c-1.3.2-2.4 1-3.2 2a1 1 0 0 1-.9.5c-1.2.2-4.2-2.5-4.2-3.7v-.6c.1-3.6-.1-3.9-3.4-5.4-.7-.2-1.3-.7-1.8-1.2-.6-.8-1.4-.7-2.3-.4-.9.3-1.4.9-1.3 1.9.3 2.4.4 4.9.3 7.3 0 .3 0 .6.2.8 3.1 4.5 4.3 9.8 5.8 14.9 1.2 3.9 3.4 6 7.4 6.3l1.9.3a4.2 4.2 0 0 1 3.4 3.2c.7 2.1.3 2.6-1.8 2.6h-6.5c-.8 0-1.7-.2-2.3-.8-1-.9-2.2-1.5-3.4-2a7.3 7.3 0 0 1-3.4-2.6 28.6 28.6 0 0 0-4-4.5c-2.8-2.9-5.8-5.7-8.4-8.7-2-2-3.1-4.8-3.2-7.6 0-.9-.2-1.3-1.2-.9a2 2 0 0 1-1 .3c-2.8 0-4.2 1.7-5.2 4.2-.9 2.1-2.1 4.1-3.2 6.2-.6 1.3-1 2.7-1 4.2 0 2.4.6 3.2 2.8 4 1.4.5 2.7 1 3.4 2.4.8 1.6.6 2-1.1 2.1h-6.8a1.9 1.9 0 0 1-1.9-1.1l-1.8-3a6 6 0 0 1-.7-5.4c.4-1.7.5-3.5.1-5.3a8.4 8.4 0 0 1 1.7-7c.6-.7.6-1-.4-1.2a50 50 0 0 1-11.9-4.2c-3.2-1.2-3.8-1-4.7 2.3-.8 2.8-1.6 5.6-2.2 8.5a17 17 0 0 0 1.1 9.2c.4 1.2 1.6 1.1 2.5 1.4 2 .6 3.7 1.4 4.5 3.5.7 1.6.6 1.8-1.1 1.8h-5.2c-1.5 0-3-.5-4.2-1.4-4.8-3.2-6.2-8.1-6.6-13.4-.2-3.3-2-5.9-4.1-8.4-.4-.5-.8-.7-1.4-.3a44.3 44.3 0 0 1-6.7 3c-4.8 1.7-9 4.8-12.2 8.8-1.2 1.5-2 3.2-2.2 5.1-.3 1.8.2 2.6 2 3.1s2.7 1.5 2.9 3.4c.1.8-.2 1.2-1 1.2h-8.1a1.7 1.7 0 0 1-1.3-.8 8.6 8.6 0 0 1-1.9-5.5c0-3.5.2-7 .9-10.3a6.3 6.3 0 0 1 3.4-4.8c5.9-2.8 9-8.1 11.8-13.6.6-1.1.1-1.3-.9-1.2-2.8.4-5.5 1.5-7.7 3.2-3 2.1-5.7 4.5-8.3 7.1a16.7 16.7 0 0 1-10.3 4.9C3.1 32.5-.3 28.4 0 21.8c0-2.3 1-4.4 2.4-6.1a4.3 4.3 0 0 1 4.5-1.5c1.5.4 1.9 1.2 1.3 2.7l-1 1.7c-.4.6-.8 1.3-1 2-1.1 3 .4 5.1 3.5 5.4 3.3.3 6-1.1 8.5-3.1a45 45 0 0 0 8-8.3 20.8 20.8 0 0 1 14.4-8.1c2.3-.3 4.3-1.3 6.5-1.9 4.1-1.3 8.4-1.9 12.7-1.8 2 0 4-.3 5.8-1.1 4.9-2 10-2 15.1-1 4 .8 8 1.8 11.9 2.8 2.3.4 4.7.4 7-.2 4.4-1.1 8.9-1.8 13.4-2 3-.1 6 .4 8.6 1.7 2 .9 2 .9 1.5 2.8Z" fill="#000"/></g></symbol><symbol id="long_cat_mobile"><g fill="none"><path d="M61.5 2.9c.6-1 1.4-1.7 2.3-2.3.5-.4.8-.4 1.1.3.4 1 .8 2 .4 3a1.1 1.1 0 0 0 .3 1l.8 1.2a3.1 3.1 0 0 1 .4 3.1c-.2.5-.2 1-.1 1.6v1.4a1.9 1.9 0 0 1-1.4 1.7c-.6 0-1.2.4-1.5 1a.5.5 0 0 1-.5.2c-.6.1-2.1-1.3-2.1-1.8v-.4c0-1.8 0-1.9-1.7-2.7-.3 0-.7-.3-.9-.6-.3-.4-.7-.3-1.1-.2-.5.2-.8.5-.7 1 .2 1.2.2 2.4.2 3.7v.3c1.6 2.3 2.2 5 3 7.5.5 2 1.6 3 3.6 3.2l1 .1a2 2 0 0 1 1.7 1.6c.4 1 .2 1.3-.9 1.3h-3.3c-.4 0-.8-.1-1.1-.4-.5-.4-1-.8-1.7-1-.7-.3-1.3-.7-1.7-1.3l-2-2.3c-1.4-1.4-2.9-2.8-4.2-4.3-1-1-1.6-2.4-1.6-3.8 0-.4-.1-.7-.6-.4a1 1 0 0 1-.5.1c-1.4 0-2.1.9-2.6 2.1l-1.6 3.1c-.3.7-.5 1.4-.5 2.1 0 1.2.3 1.6 1.4 2 .7.3 1.4.5 1.7 1.2.4.8.3 1-.6 1h-3.4a1 1 0 0 1-.9-.5l-.9-1.5a3 3 0 0 1-.3-2.7 6 6 0 0 0 0-2.6 4.2 4.2 0 0 1 .9-3.5c.3-.4.3-.6-.3-.7a25 25 0 0 1-5.9-2c-1.6-.6-1.9-.5-2.4 1.1-.3 1.4-.8 2.8-1 4.3-.4 1.5 0 3 .5 4.5.2.6.8.6 1.3.8 1 .3 1.8.7 2.2 1.7.4.8.3.9-.5.9h-2.6c-.8 0-1.6-.2-2.2-.7-2.4-1.6-3-4-3.3-6.7 0-1.7-1-3-2-4.2-.2-.3-.4-.3-.7-.2-1 .6-2.2 1.1-3.4 1.6-2.4.8-4.5 2.3-6 4.3-.6.8-1 1.7-1.2 2.6-.1.9.2 1.3 1 1.6 1 .2 1.4.7 1.5 1.6 0 .5-.1.7-.5.7h-4a.8.8 0 0 1-.7-.5c-.6-.7-1-1.7-1-2.7 0-1.7.2-3.5.5-5.1a3.1 3.1 0 0 1 1.7-2.5c3-1.4 4.5-4 5.9-6.8.3-.5 0-.6-.4-.6-1.4.2-2.8.8-3.9 1.7-1.5 1-2.9 2.2-4.2 3.5a8.3 8.3 0 0 1-5.1 2.5c-3.7.1-5.4-1.9-5.2-5.2 0-1.1.5-2.2 1.2-3A2.1 2.1 0 0 1 3.4 7c.8.2 1 .6.7 1.3l-.5.9-.5 1c-.6 1.5.2 2.5 1.7 2.7 1.7.2 3-.6 4.3-1.6 1.5-1.2 2.9-2.6 4-4.1a10.4 10.4 0 0 1 7.2-4c1.1-.2 2.1-.7 3.3-1 2-.6 4.1-1 6.3-.9 1 0 2-.1 2.9-.6 2.5-1 5-1 7.6-.5l5.9 1.4c1.2.3 2.4.2 3.5 0 2.2-.6 4.4-1 6.7-1a9 9 0 0 1 4.3.8c1 .4 1 .4.8 1.4Z" fill="#000"/></g></symbol><symbol id="long_cat_tablet"><g fill="none"><path d="M246.2 11.6c2.3-3.7 5.4-6.8 9-9.2 2-1.4 3.2-1.4 4.4 1.2 1.6 3.8 3 7.8 1.8 12a4.6 4.6 0 0 0 .8 4.2l3.2 4.6a12.5 12.5 0 0 1 1.8 12.4c-.7 2-.9 4.1-.4 6.2.4 2 .4 4 0 6a7.5 7.5 0 0 1-5.4 6.4c-2.6.5-4.8 2-6.4 4a2.1 2.1 0 0 1-1.8 1c-2.4.4-8.4-5-8.4-7.4v-1.2c.2-7.2-.2-7.8-6.8-10.8a8.8 8.8 0 0 1-3.6-2.4c-1.2-1.6-2.8-1.4-4.6-.8-1.8.6-2.8 1.8-2.6 3.8.6 4.8.8 9.7.6 14.6 0 .6.1 1.1.4 1.6 6.2 9 8.6 19.6 11.6 29.8 2.4 7.8 6.8 12 14.8 12.6 1.3.1 2.6.3 3.8.6a8.3 8.3 0 0 1 6.8 6.4c1.4 4.2.6 5.2-3.6 5.2h-13c-1.7 0-3.3-.5-4.6-1.6-2-1.7-4.3-3-6.8-4-2.7-1-5.1-2.8-6.8-5.2-2.3-3.3-5-6.3-8-9-5.6-5.8-11.6-11.4-16.8-17.4-4-4-6.2-9.5-6.4-15.2 0-1.8-.4-2.6-2.4-1.8-.6.4-1.3.6-2 .6-5.6 0-8.4 3.4-10.4 8.4-1.8 4.2-4.2 8.2-6.4 12.4-1.2 2.6-2 5.5-2 8.4 0 4.8 1.2 6.4 5.6 8 2.8 1 5.4 2 6.8 4.8 1.6 3.2 1.2 4-2.2 4.2h-13.6a3.8 3.8 0 0 1-3.8-2.2l-3.6-6a12.1 12.1 0 0 1-1.4-10.8c.9-3.5 1-7.1.2-10.6a16.8 16.8 0 0 1 3.4-14c1.2-1.4 1.2-2-.8-2.4a100.1 100.1 0 0 1-23.8-8.4c-6.4-2.4-7.6-2-9.4 4.6-1.6 5.6-3.2 11.2-4.4 17a34 34 0 0 0 2.2 18.4c.8 2.4 3.2 2.2 5 2.8 4 1.2 7.4 2.8 9 7 1.4 3.2 1.2 3.6-2.2 3.6-3.4 0-6.8-.2-10.4 0-3 0-6-1-8.4-2.8-9.6-6.4-12.4-16.2-13.2-26.8-.4-6.6-4-11.8-8.2-16.8-.8-1-1.6-1.4-2.8-.6a88.6 88.6 0 0 1-13.4 6 53.4 53.4 0 0 0-24.4 17.6c-2.3 3-3.9 6.5-4.4 10.2-.6 3.6.4 5.2 4 6.2s5.4 3 5.8 6.8c.2 1.6-.4 2.4-2 2.4H49.4a3.3 3.3 0 0 1-2.6-1.6c-2.5-3.1-3.9-7-3.8-11-.1-7 .5-13.8 1.8-20.6a12.6 12.6 0 0 1 6.8-9.6c11.8-5.6 18-16.2 23.6-27.2 1.2-2.2.2-2.6-1.8-2.4A33 33 0 0 0 58 40.2c-5.9 4.3-11.4 9-16.6 14.2-5.5 5.6-12.8 9-20.6 9.8C6.2 65-.6 56.8 0 43.6c.1-4.5 1.8-8.8 4.8-12.2a8.5 8.5 0 0 1 9-3c3 .8 3.8 2.4 2.6 5.4l-2 3.4a15 15 0 0 0-2 4c-2.2 6 .8 10.2 7 10.8 6.6.6 12-2.2 17-6.2 6-4.8 11.4-10.4 16-16.6A41.6 41.6 0 0 1 81.2 13c4.6-.6 8.6-2.6 13-3.8a83 83 0 0 1 25.4-3.6c4 .2 8-.6 11.6-2.2 9.8-4 20-4 30.2-2 8 1.6 16 3.6 23.8 5.6 4.6.9 9.4.7 14-.4C208 4.4 217 3 226 2.6c6-.3 11.8.9 17.2 3.4 4 1.8 4 1.8 3 5.6Z" fill="#000"/></g></symbol><symbol id="message"><g fill="none"><path stroke="#222" stroke-width="1.3" d="M1.18 6v8m17-8v8M.53 13.35h18m-18-12h18m-.65 1.83-8.35 6.5-8.35-6.5V1.65h16.7v1.53Z"/></g></symbol><symbol id="nav_logo"><g fill="none"><g clip-path="url(#a)" fill="#111"><path d="M1.26 16.54A6.86 6.86 0 0 1 0 12.24v-6.4C-.1 4.3.3 2.77 1.19 1.47 2.05.46 3.39 0 5.37 0 7.35 0 8.61.46 9.4 1.3a5.42 5.42 0 0 1 1.19 3.78v1.54H6.72V4.85a3.7 3.7 0 0 0-.24-1.54 1.16 1.16 0 0 0-1.1-.62c-.56 0-.95.16-1.11.54a4.85 4.85 0 0 0-.24 1.7v8.22c-.04.56.07 1.12.32 1.62.15.38.55.54 1.1.54.56 0 .87-.16 1.03-.54.18-.52.26-1.07.24-1.62v-1.84h3.87v1.54a5.77 5.77 0 0 1-1.19 3.84c-.79.93-2.13 1.39-4.03 1.39-1.9-.08-3.32-.54-4.1-1.54ZM15.25.23h4.5l3.33 17.54h-3.64l-.63-3.7h-2.6l-.64 3.7h-3.72L15.25.23Zm3.24 11.54-.95-6.85-.94 6.85h1.9Zm7.35-8.62h-2.68V.23h9.4v2.85h-2.69v14.69h-4.03V3.15ZM39.75.23h6.96v1.85h-4.5v5.77h3.63v1.77H42.2v6.46h4.5v1.77h-7.03V.23h.08Zm9.01 0h1.74l5.14 11.62V.23h2.05v17.54h-1.58l-5.21-12v12h-2.14V.23Zm11.3 0h6.96v1.85h-4.5v5.77h3.63v1.77H62.5v6.46H67v1.77h-6.95V.23Zm9.01 0h3.64c1.43-.1 2.85.28 4.03 1.08C77.6 2 78 3.23 78 4.85c0 2.23-.7 3.61-2.21 4.07l2.53 8.77h-2.45L73.5 9.46h-1.98v8.23H69V.23h.08Zm3.48 7.54c.81.06 1.63-.15 2.3-.62.47-.38.7-1.15.7-2.3a4.85 4.85 0 0 0-.23-1.7c-.18-.39-.49-.71-.87-.92a3.69 3.69 0 0 0-1.74-.3h-1.1v5.76h.94v.08Zm8.61 8.69a7.61 7.61 0 0 1-1.1-4.46V6.15c-.02-1.11.11-2.22.4-3.3.26-.81.78-1.51 1.5-2 .88-.51 1.9-.75 2.92-.7 1.66 0 2.84.39 3.55 1.23a5.77 5.77 0 0 1 1.11 3.85v.62h-2.37V5.3c0-.65-.05-1.29-.16-1.93-.06-.4-.3-.76-.63-1a2.5 2.5 0 0 0-1.5-.38 2.42 2.42 0 0 0-1.58.46 1.75 1.75 0 0 0-.63 1.23c-.1.69-.16 1.38-.16 2.08v6.54c-.06 1 .1 2 .47 2.92.32.62.95.85 1.9.85a1.96 1.96 0 0 0 1.9-.93c.41-.97.6-2.02.55-3.07v-1.23h-2.3V9.08h4.59v8.69h-1.58l-.24-2c-.2.67-.64 1.25-1.22 1.66-.6.4-1.3.6-2.02.57a4.05 4.05 0 0 1-3.4-1.54Zm13.52-4.84L90.8.3h2.37l2.76 8.46L98.63.3H101l-3.87 11.3v6.16h-2.37v-6.15h-.08Z"/></g></g></symbol><symbol id="petal"><g fill="none"><path d="M25.34.77a.95.95 0 0 0-.9-.77h-.01C19.49.03 7.48.92 2.63 8.38.12 12.26-.1 17.29 2 23.34l.07.13a25.93 25.93 0 0 0-1.04 3.32c-.11.54.21 1.07.72 1.19l.2.02c.43 0 .81-.32.9-.79.03-.1 2.42-10.37 10.86-16.38.43-.3.55-.93.26-1.38a.9.9 0 0 0-1.3-.28c-4.79 3.4-7.74 8-9.47 11.65-1.24-4.57-.92-8.37.99-11.3C7.92 3.76 16.8 2.37 22.16 2.07 21 3.87 19.75 7.17 19.75 13c0 3.12-.83 5.52-2.47 7.14-2.62 2.6-6.88 2.83-10 2.58-.51-.04-.96.38-1 .93-.04.55.35 1.03.86 1.07.63.05 1.3.08 1.99.08 3.17 0 6.86-.66 9.42-3.2 2.04-2 3.07-4.9 3.07-8.6 0-9.1 3.22-11.1 3.23-11.1.4-.21.6-.68.5-1.13Z" fill="#fff"/></g></symbol><symbol id="plus_add_mobile"><g fill="none"><path stroke="#D3D3D3" stroke-width="2" d="M15 0v30M30 15H0"/></g></symbol><symbol id="plus_add_tablet"><g fill="none"><path stroke="#D3D3D3" stroke-width="2" d="M31 0v60M60 31H0"/></g></symbol><symbol id="powder"><g fill="none"><path d="M21.28 18.47c-1.71 0-3.1 1.48-3.1 3.3 0 1.83 1.4 3.3 3.1 3.3 1.7 0 3.08-1.47 3.08-3.3 0-1.82-1.38-3.3-3.08-3.3Zm0 5.02c-.89 0-1.6-.77-1.6-1.71 0-.95.71-1.72 1.6-1.72.88 0 1.6.77 1.6 1.72 0 .94-.72 1.7-1.6 1.7ZM12.1-.01c-1.75 0-3.18 1.52-3.18 3.4 0 1.89 1.43 3.41 3.19 3.41s3.18-1.52 3.18-3.4c0-1.89-1.42-3.41-3.18-3.41Zm0 5.48c-1.06 0-1.93-.93-1.93-2.07 0-1.15.87-2.07 1.94-2.07 1.07 0 1.93.92 1.93 2.07 0 1.14-.86 2.07-1.93 2.07ZM8.73 17.61c-1.3 0-2.34 1.12-2.34 2.5 0 1.39 1.04 2.5 2.34 2.5 1.3 0 2.34-1.11 2.34-2.5 0-1.38-1.05-2.5-2.34-2.5ZM8.5 19.5c-.46 0 1.16 1.1 1.16.61 0-.49-1.62.39-1.16.39.46 0 1.06-.88 1.06-.39 0 .5-.6-.61-1.06-.61ZM19 9.76s3.04-.84 6.18 1.5c.9.76 1.76 1.33 1.15 2.12-.34.34-.64.66-1.72-.53A6.92 6.92 0 0 0 19 11.41c-1.13.24-1.96.55-3.56 2.15a8.27 8.27 0 0 1-6.5 2.5c-2.52-.24-3.84-1.27-5.24-2.55-.3-.42-.3-.87-.12-1.13.17-.26.83-.52 1.2-.13.37.4 2.1 1.97 3.82 2.07 1.72.1 3.44.21 5.74-1.96 2.3-2.18 3.46-2.34 4.66-2.6Z" fill="#fff"/><mask id="a" fill="#fff"><path d="M29.15 26.82V8.16c0-.58-.38-.65-.53-.66h-.5c-.5 0-.54.56-.54.74v18.6a2.68 2.68 0 0 1-.82 1.89c-.81.7-1.62.6-1.62.6s-20.18 0-20.66-.03a2.3 2.3 0 0 1-1.6-1c-.57-.8-.46-1.85-.46-1.85V8.3c0-.83-.67-.8-.67-.8h-.3c-.54 0-.6.58-.6.77v18.54c0 1.33.46 2.4 1.55 3.33 1.1.94 2.38.86 2.38.86h20.58c.86 0 1.98-.42 2.91-1.56.93-1.14.88-2.63.88-2.63Z"/></mask><path d="M29.15 26.82V8.16c0-.58-.38-.65-.53-.66h-.5c-.5 0-.54.56-.54.74v18.6a2.68 2.68 0 0 1-.82 1.89c-.81.7-1.62.6-1.62.6s-20.18 0-20.66-.03a2.3 2.3 0 0 1-1.6-1c-.57-.8-.46-1.85-.46-1.85V8.3c0-.83-.67-.8-.67-.8h-.3c-.54 0-.6.58-.6.77v18.54c0 1.33.46 2.4 1.55 3.33 1.1.94 2.38.86 2.38.86h20.58c.86 0 1.98-.42 2.91-1.56.93-1.14.88-2.63.88-2.63Z" fill="#fff"/><path d="M29.15 26.82h-20v.38l.01.39 19.99-.77ZM28.62 7.5l.71-19.99h-.71v20Zm-1.04.74-20-.15v.15h20Zm0 .06h-20 20Zm0 18.54-19.99-.76v.02l19.99.74Zm-.82 1.89 13.03 15.16.44-.37.4-.4-13.87-14.4Zm-1.62.6L27.4 9.46l-1.13-.13h-1.13v20ZM4.48 29.3l-3.4 19.71 1.14.2 1.15.06L4.48 29.3Zm-1.6-1-16.35 11.52L2.89 28.3Zm-.46-1.85 19.9 2.1.1-1.05v-1.05h-20ZM1.75 7.5v20h.39l.38-.01L1.75 7.5Zm-.9.78-20-.29v.29h20ZM2.4 30.15l-13.02 15.18L2.4 30.15Zm2.38.86V11h-.65l-.64.04L4.78 31Zm23.5-1.56L43.75 42.1 28.28 29.45Zm20.87-2.63V8.16h-40v18.66h40Zm0-18.66a20.54 20.54 0 0 0-19.81-20.64L27.9 27.48A19.46 19.46 0 0 1 9.15 8.16h40ZM28.62-12.5h-.5v40h.5v-40Zm-.5 0A20.47 20.47 0 0 0 9.42-.38c-1.8 4-1.83 7.56-1.84 8.47l40 .3c0 .73-.02 3.91-1.67 7.6a19.47 19.47 0 0 1-17.8 11.51v-40ZM7.58 8.24v.05h40v-.04h-40Zm0 .05v.01h40-40Zm0 .02v10.51a8367.03 8367.03 0 0 1 0 7.25c0 .79 0 .45.01.01l39.97 1.52c.02-.51.02-1.37.02-1.45a1362.33 1362.33 0 0 0 0-7.34V8.3l-40 .02Zm.01 17.79c.05-1.35.38-7.05 5.28-11.77l27.77 28.8a22.68 22.68 0 0 0 6.92-15.54L7.6 26.09Zm6.13-12.54a17.51 17.51 0 0 1 12.43-4.2 19.23 19.23 0 0 1 1.17.1h.06s.02 0-2.24 19.87a2063.4 2063.4 0 0 0-2.24 19.88h.05a14.8 14.8 0 0 0 1.25.1 21.38 21.38 0 0 0 5.56-.45A22.49 22.49 0 0 0 39.8 43.9L13.72 13.56Zm11.42 15.77v-20h-.87A17598.02 17598.02 0 0 1 5.6 9.31c-1.07 0-.61 0 0 .03L3.38 49.27c.97.06 7.17.06 11.6.06h10.16v-20ZM7.88 9.6c.43.08 2.52.43 4.93 1.66 2.57 1.3 4.78 3.2 6.4 5.51l-32.67 23.07c5 7.08 11.87 8.72 14.55 9.18L7.88 9.6Zm11.34 7.18a17.34 17.34 0 0 1 3.13 11.4 18.52 18.52 0 0 1-.03.28v.08c0 .01 0 .02-19.9-2.08l-19.89-2.09v.01a19.73 19.73 0 0 0-.11 1.97 22.66 22.66 0 0 0 4.12 13.48l32.68-23.05Zm3.2 9.68V8.3h-40v18.14h40Zm0-18.14A20.74 20.74 0 0 0 2.78-12.47a20.44 20.44 0 0 0-1.76-.01H1c-.01 0-.03 0 .75 19.98.77 19.99.76 19.99.75 19.99h-.07a28.57 28.57 0 0 1-1.65-.01 19.35 19.35 0 0 1-16-10.04 19.03 19.03 0 0 1-2.36-9.13h40ZM1.75-12.49h-.3v40h.3v-40Zm-.3 0A20.52 20.52 0 0 0-17.18-.66 21.17 21.17 0 0 0-19.14 8l40 .58c-.02.76-.05 4-1.8 7.72A19.44 19.44 0 0 1 1.45 27.5v-40Zm-20.6 20.77v18.54h40V8.28h-40Zm0 18.54c0 7.06 2.92 13.7 8.53 18.51l26.05-30.35a15.63 15.63 0 0 1 4 5.37 15.72 15.72 0 0 1 1.42 6.47h-40Zm8.53 18.51a23.59 23.59 0 0 0 16.56 5.65H6l.03-.01h.01c.01 0 .02 0-1.26-19.96C3.49 11.05 3.5 11.05 3.5 11.05h.04A429.61 429.61 0 0 1 4.5 11a17.44 17.44 0 0 1 3.65.36c1.88.4 4.64 1.34 7.29 3.6l-26.05 30.36Zm15.4-14.32v20h20.63l-.1-40H4.77v20ZM25.4 51c7.1-.02 13.8-3.34 18.35-8.9L12.8 16.8A16.17 16.17 0 0 1 25.3 11l.11 40Zm18.36-8.91a23.97 23.97 0 0 0 5.38-15.11 21.8 21.8 0 0 0-.02-.94l-19.98.77-19.99.76v-.04a18.38 18.38 0 0 1 .01-1.62 16.04 16.04 0 0 1 3.6-9.11l31 25.29Z" fill="#fff" mask="url(#a)"/></g></symbol><symbol id="scales"><g fill="none"><circle cx="17.7" cy="9.33" fill="#fff" r="1.09"/><circle cx="6.83" cy="9.33" fill="#fff" r="1.09"/><circle cx="6.83" cy="22.35" fill="#fff" r="1.09"/><circle cx="12.27" cy="24.52" fill="#fff" r="1.09"/><circle cx="3.57" cy="15.77" fill="#fff" r="1.09"/><circle cx="20.97" cy="15.77" fill="#fff" r="1.09"/><circle cx="17.7" cy="22.35" fill="#fff" r="1.09"/><mask id="a" fill="#fff"><path fill-rule="evenodd" clip-rule="evenodd" d="M17.42 27.06c.41-.2.9-.13 1.22.2l1.82 1.87a.68.68 0 0 0 .98-.95l-1.36-1.4c-.42-.43-.36-1.14.1-1.55a12.75 12.75 0 0 0 4.32-9.62C24.5 8.65 19.02 3 12.27 3 5.5 3 .04 8.65.04 15.61c0 3.82 1.64 7.24 4.23 9.55.45.4.51 1.11.1 1.55l-1.44 1.47a.68.68 0 1 0 .97.95l1.88-1.93c.32-.33.82-.4 1.23-.2a11.88 11.88 0 0 0 10.41.06Zm-5.15-.23c6 0 10.87-5.02 10.87-11.22 0-6.19-4.87-11.2-10.87-11.2-6 0-10.88 5.01-10.88 11.2 0 6.2 4.87 11.22 10.88 11.22ZM11.5 15.3V7.94a.78.78 0 1 1 1.56 0v8.18a.8.8 0 0 1-.8.8.76.76 0 0 1-.76-.75v-.87Z"/></mask><path fill-rule="evenodd" clip-rule="evenodd" d="M17.42 27.06c.41-.2.9-.13 1.22.2l1.82 1.87a.68.68 0 0 0 .98-.95l-1.36-1.4c-.42-.43-.36-1.14.1-1.55a12.75 12.75 0 0 0 4.32-9.62C24.5 8.65 19.02 3 12.27 3 5.5 3 .04 8.65.04 15.61c0 3.82 1.64 7.24 4.23 9.55.45.4.51 1.11.1 1.55l-1.44 1.47a.68.68 0 1 0 .97.95l1.88-1.93c.32-.33.82-.4 1.23-.2a11.88 11.88 0 0 0 10.41.06Zm-5.15-.23c6 0 10.87-5.02 10.87-11.22 0-6.19-4.87-11.2-10.87-11.2-6 0-10.88 5.01-10.88 11.2 0 6.2 4.87 11.22 10.88 11.22ZM11.5 15.3V7.94a.78.78 0 1 1 1.56 0v8.18a.8.8 0 0 1-.8.8.76.76 0 0 1-.76-.75v-.87Z" fill="#fff"/><path d="m5.78 27.2 2.87 2.79-2.87-2.8Zm1.23-.2 1.77-3.58L7 27Zm-3.1 2.13-2.87-2.8 2.86 2.8Zm-.98-.95 2.86 2.79-2.86-2.8Zm17.15-1.4-2.86 2.8 2.86-2.8Zm.1-1.55-2.63-3 2.63 3Zm-15.9-.07L1.6 28.15l2.66-2.99Zm.08 1.55L1.5 23.9l2.86 2.8Zm17.08 1.47 2.87-2.8-2.87 2.8Zm-.98.95 2.87-2.8-2.87 2.8Zm-1.82-1.88-2.87 2.8 2.87-2.8Zm-1.22-.2-1.73-3.6 1.73 3.6Zm-1.65 3 1.83 1.87 5.73-5.58-1.83-1.88-5.73 5.58Zm8.54-4.66-1.36-1.4-5.73 5.59 1.36 1.39 5.73-5.58Zm-1.5 2.85a16.75 16.75 0 0 0 5.69-12.63h-8a8.75 8.75 0 0 1-2.95 6.61l5.27 6.02Zm5.69-12.63C28.5 6.56 21.35-1 12.27-1v8c4.43 0 8.23 3.74 8.23 8.61h8ZM12.27-1C3.19-1-3.96 6.56-3.96 15.61h8c0-4.87 3.8-8.61 8.23-8.61v-8ZM-3.96 15.61c0 4.98 2.14 9.48 5.57 12.54l5.32-5.97a8.75 8.75 0 0 1-2.9-6.57h-8Zm5.46 8.3L.06 25.4l5.73 5.58 1.44-1.47L1.5 23.9Zm5.27 8.01 1.88-1.93-5.73-5.58-1.88 1.93 5.73 5.58ZM5.25 30.6a15.88 15.88 0 0 0 7.02 1.63v-8a7.88 7.88 0 0 1-3.5-.81L5.26 30.6Zm7.02 1.63c2.45 0 4.79-.56 6.88-1.57l-3.46-7.2c-1.04.5-2.2.77-3.42.77v8Zm0-1.4c8.33 0 14.87-6.93 14.87-15.22h-8c0 4.1-3.2 7.22-6.87 7.22v8ZM27.14 15.6C27.14 7.32 20.6.4 12.27.4v8c3.68 0 6.87 3.1 6.87 7.2h8ZM12.27.41C3.94.4-2.61 7.32-2.61 15.6h8c0-4.1 3.2-7.2 6.88-7.2v-8ZM-2.61 15.6c0 8.29 6.55 15.22 14.88 15.22v-8c-3.68 0-6.88-3.11-6.88-7.22h-8Zm11.68-.31v.54h8v-.54h-8Zm0 .54v.28h8v-.28h-8Zm6.44.33v-.33h-8v.33h8Zm0-.33v-.54h-8v.54h8Zm0-.54v-3.8h-8v3.8h8Zm0-3.8V7.94h-8v3.56h8ZM9.07 7.94v3.56h8V7.94h-8Zm0 3.56v3.8h8v-3.8h-8Zm3.22-8.34a4.78 4.78 0 0 0-4.78 4.78h8a3.22 3.22 0 0 1-3.22 3.22v-8ZM9.07 16.12a3.2 3.2 0 0 1 3.2-3.2v8a4.8 4.8 0 0 0 4.8-4.8h-8ZM8.65 30c-1 1.02-2.4 1.1-3.4.6l3.53-7.17a5.06 5.06 0 0 0-5.86.99L8.65 30ZM.06 31.92a4.68 4.68 0 0 0 6.71 0l-5.73-5.58a3.32 3.32 0 0 1 4.75 0L.06 31.92Zm0-6.53a4.68 4.68 0 0 0 0 6.53l5.73-5.58a3.32 3.32 0 0 1 0 4.63L.06 25.39Zm22.89-1.4a2.93 2.93 0 0 1-.13 4.25l-5.27-6.02a5.08 5.08 0 0 0-.33 7.36l5.73-5.59ZM12.29 11.16a3.22 3.22 0 0 1-3.22-3.22h8a4.78 4.78 0 0 0-4.78-4.78v8ZM1.61 28.15a2.93 2.93 0 0 1-.11-4.24l5.73 5.59a5.07 5.07 0 0 0-.3-7.32l-5.32 5.97Zm22.7 3.77a4.68 4.68 0 0 0 0-6.53l-5.73 5.58a3.32 3.32 0 0 1 0-4.63l5.73 5.58Zm-6.71 0a4.68 4.68 0 0 0 6.7 0l-5.72-5.58a3.32 3.32 0 0 1 4.75 0l-5.73 5.58Zm-5.33-19a3.24 3.24 0 0 1 3.24 3.25h-8a4.76 4.76 0 0 0 4.76 4.76v-8Zm9.23 11.54a5.06 5.06 0 0 0-5.8-1l3.45 7.2c-1 .49-2.4.4-3.38-.62l5.73-5.58Z" fill="#fff" mask="url(#a)"/><path fill="#fff" d="M11.5 4V0H13v4z"/><rect x="4.5" width="15.5" height="1.5" rx=".75" fill="#fff"/></g></symbol><symbol id="small_cat_desktop"><g fill="none"><path d="M54.8 0h-.3c-.7.4-1.2 1-1.5 1.6-.6 1-1 2.2-1.3 3.4a1.6 1.6 0 0 1-1.5 1.3 7.3 7.3 0 0 0-5.2 3.8l-1.9 4c-1.4 3.7-2.5 7.5-3.8 11.2-.6 1.7-.7 1.7-2.6 1.7-2.2 0-2-.4-2.1 2.1 0 .8.2 1.2 1 1.2.3 0 .7-.1.8.2.1.4-.2.5-.4.7a9 9 0 0 1-4.3 2.4L26 35.2a28.6 28.6 0 0 0-12.6 7.5 28 28 0 0 0-4.7 7.9c-3.7 8.6-5.5 17.7-6.9 27-.6 4.2-1 8.6-1.4 13-.2 2-.4 4.2-.4 6.4h33.3c0-.4 0-.9-.2-1.3a5 5 0 0 0-3.8-3c-.7-.2-.8-.4-.4-1 .7-1 1.3-2 1.6-3 1.6-4.9 2.3-9.9 3-14.9A30 30 0 0 1 37 63c1.4-2.5 3.3-4.6 5.6-6.4.8-.6.9-.6 1 .5l.2 2.1c.3 4.8.2 9.5-.2 14.2A61.7 61.7 0 0 0 45.7 97H59a5.4 5.4 0 0 0-4.2-4.4 9 9 0 0 0-3.8.2c-.6.1-.9 0-.9-.7-.4-5.3 0-10.6 1-15.8 1.3-6 2.4-12 3-18.2.3-2.5 1.1-4.8 2.3-7l3.4-6.4a5.9 5.9 0 0 0 .5-5.2l-.9-2.1-3-5.9c-.4-1-.3-1.1.8-1.1 1.6 0 1.6 0 1.6-1.7v-.6c0-.7-.2-1.1-1-1h-1.5c-.7 0-.9-.3-.7-1a6.2 6.2 0 0 1 5.1-4.5 22 22 0 0 1 6.7.5 1 1 0 0 0 1.2-.7 77.4 77.4 0 0 1 1.4-3.6A35.6 35.6 0 0 0 57.8 6.5l-.3-.6c-.2-1.4-.7-2.8-1.3-4.2C56 1 55.5.4 54.9 0Z" fill="#000"/></g></symbol><symbol id="small_cat_mobile"><g fill="none"><path d="M28.2 0H28c-.3.2-.6.5-.7.8a8 8 0 0 0-.7 1.8.8.8 0 0 1-.8.7 3.8 3.8 0 0 0-2.7 2 14 14 0 0 0-1 2L20.3 13c-.3 1-.3 1-1.3 1-1.2 0-1-.3-1.1 1 0 .4.1.6.5.6l.4.1c0 .2 0 .3-.2.4-.6.6-1.4 1-2.2 1.2l-3 .8c-2.4.8-4.6 2-6.4 4-1 1.1-1.9 2.5-2.4 4A56.7 56.7 0 0 0 .9 40a97 97 0 0 0-.7 6.7L0 50h17.1v-.7a2.6 2.6 0 0 0-2-1.5c-.4-.1-.4-.2-.2-.5l.8-1.6c.8-2.5 1.2-5 1.6-7.6.2-2 .8-3.9 1.7-5.6.8-1.3 1.7-2.4 2.9-3.3.4-.3.4-.3.5.2l.1 1.1c.2 2.5.1 5 0 7.3a31.9 31.9 0 0 0 1 12.2h6.8a2.8 2.8 0 0 0-2.1-2.3l-2 .1c-.3 0-.4 0-.4-.3-.2-2.7 0-5.5.5-8.2.7-3 1.2-6.2 1.6-9.3 0-1.3.5-2.5 1.1-3.7l1.8-3.3a3 3 0 0 0 .2-2.7l-.5-1-1.5-3c-.2-.6-.1-.6.4-.7.9 0 .9 0 .9-.8v-.3c0-.4-.2-.6-.5-.6H29c-.4 0-.5-.1-.4-.5a3.2 3.2 0 0 1 2.6-2.3c1.2 0 2.3 0 3.4.3a.5.5 0 0 0 .7-.4 40 40 0 0 1 .7-1.8l-.1-.3a18.3 18.3 0 0 0-6.2-5.5l-.1-.4-.7-2.1c-.1-.4-.4-.7-.7-.9Z" fill="#000"/></g></symbol><symbol id="small_cat_tablet"><g fill="none"><path d="M109.68 0h-.76A7 7 0 0 0 106 3.18c-1.13 2.16-2 4.45-2.58 6.82a3.26 3.26 0 0 1-2.96 2.68A14.68 14.68 0 0 0 90 20.24a54.62 54.62 0 0 0-3.7 8c-2.84 7.36-5.02 14.96-7.7 22.38C77.34 54 77.28 54 73.48 54c-4.54 0-4.22-.7-4.28 4.3 0 1.58.48 2.38 2.16 2.3.52 0 1.3-.26 1.5.42.2.68-.48.98-.88 1.38a18 18 0 0 1-8.66 4.88c-3.8 1.02-7.68 1.82-11.38 3.06-9.5 3.18-18.28 7.62-25.12 15.14a56 56 0 0 0-9.48 15.68C10 118.44 6.44 136.64 3.68 155.02a375.77 375.77 0 0 0-2.92 26C.4 185.3 0 189.64 0 194h66.66a4.36 4.36 0 0 0-.46-2.56 10 10 0 0 0-7.66-6.14c-1.4-.32-1.56-.74-.7-1.84a20.7 20.7 0 0 0 3.18-6.2c3.26-9.62 4.52-19.66 6.1-29.6A60 60 0 0 1 74 126a43.2 43.2 0 0 1 11.18-12.74c1.66-1.26 1.72-1.26 2 .88.2 1.42.24 2.88.34 4.32.6 9.45.48 18.93-.36 28.36-.76 7.31-.86 14.67-.3 22 .8 8.5 2.31 16.93 4.54 25.18H118a10.82 10.82 0 0 0-8.48-8.88 18 18 0 0 0-7.52.4c-1.2.28-1.7 0-1.8-1.3a112.7 112.7 0 0 1 2-31.64c2.67-12 4.71-24.14 6.12-36.36a35.5 35.5 0 0 1 4.56-14c2.38-4.24 4.46-8.64 6.8-12.9a11.75 11.75 0 0 0 .84-10.38c-.54-1.42-1.06-2.86-1.72-4.22-2-3.9-4-7.76-5.84-11.7-.98-2-.76-2.24 1.42-2.3 3.26 0 3.26 0 3.32-3.28v-1.32c0-1.38-.52-2.14-2-2h-3.04c-1.38 0-1.78-.58-1.44-2a12.48 12.48 0 0 1 10.26-8.86 44 44 0 0 1 13.24.86 2 2 0 0 0 2.5-1.28c.8-2 1.68-4 2.58-6a2 2 0 0 0-.2-2.28c-6.4-8.12-13.34-15.7-22.8-20.56a2.98 2.98 0 0 1-1.76-2.24 39.16 39.16 0 0 0-2.54-8.32A7 7 0 0 0 109.68 0Z" fill="#000"/></g></symbol><symbol id="telegram"><g fill="none"><path fill-rule="evenodd" clip-rule="evenodd" d="M19.46.15c.18.15.27.38.23.61l-2.63 15.76a.66.66 0 0 1-1.01.44l-7.88-5.25a.66.66 0 0 1-.15-.96l2.61-3.26-4.36 2.9a.66.66 0 0 1-.65.05L.36 7.8a.66.66 0 0 1 .08-1.2L18.82.03a.66.66 0 0 1 .64.11ZM2.33 7.32 5.86 9.1l7.56-5.04a.66.66 0 0 1 .88.96l-4.8 6 6.43 4.3 2.28-13.66L2.33 7.32Z" fill="#666"/></g></symbol><symbol id="telephone"><g fill="none"><g clip-path="url(#a)" fill="#000"><path d="M17.9 9.4H9.4v1.2h8.5l-2.1 2.1.9.9 3.1-3.1a.75.75 0 0 0 0-.9l-3.1-3.1-.9.9 2.1 2Zm-9.8 10v-6.2a.65.65 0 0 0-.6-.6H3.1a1.22 1.22 0 0 0 1.2 1.2h2.5v5H3.1a1.79 1.79 0 0 1-1.9-1.7v-14a1.77 1.77 0 0 1 1.7-1.8h3.9v5H4.4a1.22 1.22 0 0 0-1.2 1.2h4.4a.65.65 0 0 0 .6-.6V.6a.86.86 0 0 0-.7-.6H3.1A3 3 0 0 0 0 2.9v13.9a2.89 2.89 0 0 0 2.9 3.1h4.6a.5.5 0 0 0 .6-.5Z"/></g></g></symbol><symbol id="tick"><g fill="none"><path d="M9 15.499 1.4 6.901 0 8.485l9 10.182 15-16.97L22.6 0 9 15.499Z" fill="#68B738"/></g></symbol><symbol id="vkontakte"><g fill="none"><path d="M0 2.34C0 1.48.52 1.02 1.55.96l3.97.02c.26 0 .44.13.53.38.4 1.26.86 2.34 1.37 3.25.5.92 1.17 1.97 1.99 3.16.07.15.18.23.34.23.13 0 .22-.06.3-.18l.07-.28.03-4.35c0-.3-.07-.5-.23-.6-.15-.1-.43-.18-.83-.23-.32-.05-.48-.23-.48-.55 0-.07 0-.12.02-.15C9.01.57 10.07.03 11.83.03l1.5-.03C14 0 14.55.16 15 .48c.44.32.67.82.67 1.5V7.7c.12.08.24.12.34.12.27 0 .5-.15.7-.45 1.95-2.58 3-4.31 3.17-5.18 0-.02.01-.06.05-.13.12-.25.33-.47.61-.65.29-.19.53-.31.75-.38a.55.55 0 0 1 .24-.05h4.13l.26.03c.36 0 .63.16.83.47.07.1.12.21.15.33a2.4 2.4 0 0 1 .06.55v.18a6.11 6.11 0 0 1-.94 2.2c-.5.78-1.15 1.62-1.93 2.53-.79.9-1.27 1.5-1.47 1.78-.16.2-.24.39-.24.56 0 .13.07.28.21.45l3.9 4.63c.2.26.31.56.31.88 0 .38-.16.7-.48.95-.32.25-.7.4-1.14.43l-.46.02h-4.04c-.02 0-.06 0-.11.02a.86.86 0 0 1-.1.01c-.4 0-.76-.16-1.1-.48-.12-.13-.96-1.12-2.5-2.97a1.39 1.39 0 0 0-.38-.32 38.47 38.47 0 0 0-.53 2.24l-.08.42a1.4 1.4 0 0 1-1.12 1.06l-.37.02h-2.61c-1.48 0-2.95-.63-4.41-1.9a19.3 19.3 0 0 1-3.96-4.95A47.51 47.51 0 0 1 .13 3.07 1.92 1.92 0 0 1 0 2.34Zm16.01 6.51c-.37 0-.7-.1-1.01-.29a.9.9 0 0 1-.45-.79V2c0-.34-.1-.58-.27-.72-.18-.14-.49-.21-.93-.21l-1.52.05c-.76 0-1.34.12-1.73.37.78.36 1.17.93 1.17 1.71v4.43a1.5 1.5 0 0 1-.53 1.04c-.32.28-.68.42-1.07.42-.53 0-.94-.24-1.22-.73a26.16 26.16 0 0 1-3.1-5.63l-.23-.66-3.55-.02c-.23 0-.36.01-.38.03-.03.03-.04.1-.04.22 0 .15.01.3.05.48l.56 1.4c1.49 3.64 3.11 6.51 4.86 8.6 1.75 2.1 3.47 3.15 5.16 3.15h2.66c.1 0 .19-.03.24-.09.05-.06.1-.17.13-.34l.06-.25.5-2.21c.15-.3.27-.5.38-.6.2-.2.42-.28.69-.28.43 0 .86.24 1.3.73l2.27 2.71c.14.22.3.33.45.33h4.4c.53 0 .8-.13.8-.38a.47.47 0 0 0-.08-.25l-3.87-4.55c-.3-.35-.45-.73-.45-1.13 0-.4.14-.8.43-1.16.23-.34.68-.9 1.34-1.67.67-.78 1.25-1.51 1.75-2.19.5-.68.82-1.3.98-1.85l.08-.33a.37.37 0 0 1-.02-.16c0-.07-.01-.14-.03-.19h-4.18c-.27.1-.48.25-.64.45L20.8 3c-.45 1.16-1.6 2.94-3.5 5.36-.36.33-.8.5-1.3.5Z" fill="#666"/></g></symbol><symbol id="youtube"><g fill="none"><path d="m15.85 8.8-5.24-3.5a.65.65 0 0 0-1.01.55v6.98a.65.65 0 0 0 1.01.54l5.24-3.49a.65.65 0 0 0 0-1.09Zm-4.94 2.8V7.08l3.4 2.27-3.4 2.27Zm12.48-8.56a2.4 2.4 0 0 0-1.45-1.63C18.22-.02 12.25 0 12 0S5.78-.02 2.06 1.4A2.4 2.4 0 0 0 .61 3.05 25.32 25.32 0 0 0 0 9.34c0 3.26.33 5.22.61 6.3a2.4 2.4 0 0 0 1.45 1.63c3.72 1.43 9.69 1.4 9.94 1.4h.08c.75 0 6.31-.04 9.86-1.4a2.4 2.4 0 0 0 1.45-1.64c.28-1.07.61-3.03.61-6.3 0-3.25-.33-5.22-.61-6.29Zm-1.27 12.27a1.1 1.1 0 0 1-.65.74c-3.5 1.34-9.4 1.32-9.47 1.32-.07 0-5.98.02-9.47-1.32a1.09 1.09 0 0 1-.65-.74c-.27-1-.57-2.85-.57-5.97 0-3.12.3-4.97.57-5.97a1.1 1.1 0 0 1 .65-.74C6.03 1.29 11.93 1.3 12 1.3c.07 0 5.98-.02 9.47 1.32a1.1 1.1 0 0 1 .65.74c.27 1 .57 2.85.57 5.97 0 3.12-.3 4.96-.57 5.97Z" fill="#666"/></g></symbol></svg>